<svg xmlns="http://www.w3.org/2000/svg" xmlns:svg="http://www.w3.org/2000/svg" xmlns:xlink="http://www.w3.org/1999/xlink" id="svg2" width="48" height="48" version="1.0"><defs id="defs4"><linearGradient id="linearGradient3211"><stop style="stop-color:#ad7fa8;stop-opacity:1" id="stop3213" offset="0"/><stop style="stop-color:#6d3f79;stop-opacity:1" id="stop3215" offset="1"/></linearGradient><linearGradient id="linearGradient3241" x1="22.857" x2="22.321" y1="7.464" y2="29.518" gradientTransform="matrix(1.0867999,0,0,1.184873,-1.7675716,-4.222704)" gradientUnits="userSpaceOnUse" xlink:href="#linearGradient3211"/><linearGradient id="linearGradient3257" x1="45.08" x2="5.169" y1="32.636" y2="17.904" gradientTransform="matrix(1.0867999,0,0,1.184873,-1.7675716,-4.222704)" gradientUnits="userSpaceOnUse" xlink:href="#linearGradient3211"/></defs><metadata id="metadata7"/><g id="layer1"><path style="fill:url(#linearGradient3241);fill-opacity:1;stroke:url(#linearGradient3257);stroke-width:1.85299999999999998;stroke-miterlimit:4;stroke-dasharray:none;stroke-opacity:1;stroke-linejoin:round;stroke-linecap:butt" id="rect2393" d="M 20.269235,1.5698706 C 7.6624584,1.586925 17.82325,9.0800884 15.658022,12.889191 L 1.6189742,12.889191 L 1.6189742,23.490023 C 2.3148848,22.869855 9.7083111,17.402709 9.7234081,28.353464 C 9.7385858,39.361798 2.3886113,32.963473 1.6189742,32.178043 L 1.6189742,43.881026 L 17.156278,43.881026 C 16.456282,43.031047 11.798178,33.779986 21.317221,33.857213 C 31.952583,33.942772 24.496239,40.076941 26.732007,43.881026 L 37.390544,43.881026 L 37.390544,33.197474 C 40.902461,31.164143 46.918535,40.136924 46.934005,28.329567 C 46.950724,15.472259 38.692488,21.724782 37.390544,22.962974 L 37.47983,12.889191 L 24.876605,12.799905 C 25.576603,11.949925 32.505173,1.5533177 20.269235,1.5698706 z"/><rect style="stroke-width:2.1329999;stroke-miterlimit:4;stroke-dasharray:none" id="rect2403" width="2.399" height="0" x="20.834" y="7.341" rx="5.619" ry="0"/></g></svg>